<svg id="Layer_1" data-name="Layer 1" xmlns="http://www.w3.org/2000/svg" viewBox="0 0 1984.25 2834.65"><defs><style>.cls-1{fill:#b9e1d5;}</style></defs><path class="cls-1" d="M446.61,1360.63c5.94-31.17,35.75-54.78,63.43-59.63,57.38-10.06,77.54,65.44,140.51,68.2,66.83,2.94,135.85-78.1,156-156,15.2-58.88.49-108.42-6.86-128.54-26.08-71.42-85.73-118-137.1-137.1-124.65-46.45-273.45,41.24-347.9,140.53C215,1221,229.83,1399.5,295.79,1521.73c9.52,17.62,99.21,177.69,277.64,207.36,31.57,5.26,190.05,31.61,260.49-70.26,35-50.61,46.41-130.19,12-181.66-48-71.82-189-94.51-287.92-66.84-29.21,8.18-71.56,25.45-96,5.14C446,1402.16,443.41,1377.42,446.61,1360.63Z"/><path class="cls-1" d="M1177.57,949.79c-95.56-29.31-229.79-14.58-292.06,35.42-36.15,29-38.21,62.09-31.4,131.86,20.51,210,32.13,328.87,122.48,344.38,52.64,9,124.46-18.3,147.6-51.16,34.52-49-52.57-91.59-18.85-137.76,30.07-41.16,112.58-25.5,166.45-64.94C1351.43,1149.28,1332.06,997.19,1177.57,949.79Zm-54.3,165.52c-6.35,6.09-17.93,9.5-28.15,12.4-10.49,3-22.11,5.27-31.46,9.58-2,.94-4.91-.07-5.53-1.41-1.59-3.4-3.09-6.82-4.47-10.25a1.94,1.94,0,0,1-1.1-2.35c0-.08,0-.17.09-.26-4.26-11.16-7.11-22.52-7.19-34,0-1.62,2.12-2.38,4.12-2.27h0c12.52-1.51,26-.65,38.28,1.15,11.29,1.66,23.59,4.47,31.7,9.92C1126.82,1102.64,1129.32,1109.52,1123.27,1115.31Z"/></svg>