<svg id="Layer_2" data-name="Layer 2" xmlns="http://www.w3.org/2000/svg" viewBox="0 0 841.89 595.28"><defs><style>.cls-1{fill:#231f20;stroke:#fff;stroke-miterlimit:10;stroke-width:0.75px;}</style></defs><title>Artboard 1</title><path class="cls-1" d="M453.48,324.85c.26,2.83.2,25,0,56.44.24.69.77,1.92,1.64,2,1.29.19,2.57-2.14,3.08-3.08,4-7.29,6.12-24,6.36-24s.26,3.55.41,16.42a2.77,2.77,0,0,0,2.26.82c1.62-.43,2-3.64,2.26-5.34,1-7.36,3.34-16.6,4.51-16.62.47,0,1.15,1.44,2.06,8.21a3.51,3.51,0,0,0,2.46-.41c1.18-.79,1.08-2.17,1.64-3.7.72-2,2.4-3.24,5.75-5.74s5-2.94,4.92-4.11c0,0,0-.55-3.08-3.08l-2.66.41c-4.83.73-14-8.41-14-8.41A86.06,86.06,0,0,1,460.66,322a7.11,7.11,0,0,0-3.28-.82c-.8,0-2.4,0-3.29,1A3.56,3.56,0,0,0,453.48,324.85Z"/></svg>